# xmcd
# 
# Track frame offsets:
#     150
#     14260
#     26710
#     38433
#     53579
#     66247
#     81065
#     94320
#     108716
#     118291
#     131879
#     142167
#     154730
#     169055
#     184146
# 
# Disc length: 2682
# 
# Revision: 0
# Processed by: cddbd v1.5.2PL0 Copyright (c) Steve Scherf et al.
# Submitted via: fre:ac v1.0.31
# 
DISCID=d30a780f
DTITLE=Muddy Waters - I'm Your Hoochie Coochie Man CD1
DYEAR=2007
DGENRE=Blues
TTITLE0=Rolling Stone
TTITLE1=I'm Your Hoochie Coochie Man
TTITLE2=You Gonna Miss Me
TTITLE3=32-20 Blues
TTITLE4=I Just Want To Make Love To You
TTITLE5=Still A Fool
TTITLE6=She Moves Me
TTITLE7=I Be Bound To Write To You
TTITLE8=Why Don't You Live So God Can Use You
TTITLE9=I'm Ready
TTITLE10=Mean Red Spider
TTITLE11=Train Fare Home Blues
TTITLE12=Burr Clover Blues
TTITLE13=Standing Around Crying
TTITLE14=All Night Long (Alternate)
EXTD=
EXTT0=
EXTT1=
EXTT2=
EXTT3=
EXTT4=
EXTT5=
EXTT6=
EXTT7=
EXTT8=
EXTT9=
EXTT10=
EXTT11=
EXTT12=
EXTT13=
EXTT14=
PLAYORDER=
